<?xml version="1.0" encoding="utf-8"?>
<!-- Generator: Adobe Illustrator 27.0.0, SVG Export Plug-In . SVG Version: 6.00 Build 0)  -->
<svg version="1.1" id="Capa_1" xmlns="http://www.w3.org/2000/svg" xmlns:xlink="http://www.w3.org/1999/xlink" x="0px" y="0px"
	 viewBox="0 0 24.54 32.82" style="enable-background:new 0 0 24.54 32.82;" xml:space="preserve">
<style type="text/css">
	.st0{fill:#46EAB3;}
	.st1{fill:none;stroke:#46EAB3;stroke-width:0.6813;stroke-miterlimit:10;}
</style>
<g>
	<g id="XMLID_00000148647479053593722260000001424841270009046166_">
		<g>
			<path class="st0" d="M7.05,11.31c1.22-0.71,2.54-1.17,3.92-1.45c1.02-0.21,2.05-0.32,3.1-0.37c0.47-0.02,0.94-0.03,1.41-0.06
				c0.31-0.02,0.43,0.06,0.42,0.39c-0.03,0.63-0.01,1.27-0.01,1.9c0,0.08-0.04,0.18,0.05,0.23c0.09,0.05,0.14-0.05,0.2-0.09
				c2.21-1.61,4.41-3.23,6.62-4.85c0.08-0.05,0.12-0.13,0.19-0.2c0.23,0.09,0.39,0.28,0.56,0.44c0.21,0.2,0.15,0.42-0.12,0.63
				c-0.99,0.73-1.98,1.46-2.98,2.19c-1.63,1.19-3.26,2.39-4.89,3.59c-0.15,0.11-0.3,0.27-0.52,0.16c-0.24-0.11-0.23-0.32-0.23-0.53
				c0-0.75,0-1.5,0-2.25c0-0.15,0.02-0.29-0.22-0.29c-2.33,0.03-4.64,0.2-6.83,1.07c-1.89,0.76-3.42,1.96-4.53,3.68
				c-0.02,0.04-0.06,0.07-0.09,0.11c0.01-0.44,0.33-0.74,0.54-1.06C4.52,13.2,5.66,12.12,7.05,11.31z"/>
			<path class="st0" d="M3.97,22.89c1.69-1.24,3.38-2.48,5.07-3.71c0.15-0.12,0.3-0.27,0.53-0.15c0.23,0.12,0.23,0.33,0.23,0.54
				c0.01,0.75,0.01,1.5,0,2.24c0,0.17,0.01,0.28,0.23,0.28c2.36-0.03,4.69-0.2,6.9-1.11c1.83-0.75,3.3-1.94,4.39-3.6
				c0.04-0.06,0.08-0.11,0.12-0.17c-0.05,0.51-0.39,0.88-0.66,1.26c-1.78,2.53-4.28,3.92-7.27,4.5c-0.97,0.19-1.94,0.3-2.92,0.36
				c-0.52,0.03-1.04,0.02-1.55,0.05c-0.28,0.02-0.39-0.07-0.37-0.36c0.02-0.71,0.01-1.42,0.01-2.19c-0.47,0.23-0.82,0.54-1.19,0.81
				c-1.89,1.37-3.77,2.76-5.66,4.15c-0.08,0.06-0.17,0.12-0.21,0.21c-0.23-0.09-0.4-0.28-0.57-0.44c-0.21-0.2-0.16-0.42,0.12-0.63
				C2.1,24.26,3.04,23.58,3.97,22.89z"/>
		</g>
		<g>
			<path class="st1" d="M3.1,15.6c-0.28,0.56-0.62,1.1-0.85,1.68C2,17.87,1.81,18.47,1.62,19.14c-0.4-0.67-0.67-1.33-0.87-2.02
				c-1.26-4.4,0.42-8.78,4.33-11.35c1.9-1.25,4-1.93,6.24-2.28c1.05-0.17,2.11-0.23,3.16-0.26c0.23-0.01,0.3-0.08,0.29-0.3
				c-0.01-0.68-0.01-1.36-0.01-2.03c0-0.2-0.02-0.4,0.2-0.51c0.24-0.12,0.4,0.04,0.55,0.17c1.9,1.59,3.8,3.17,5.7,4.77
				c0.58,0.49,1.15,0.98,1.73,1.47"/>
			<path class="st1" d="M21.44,17.22c0.63-1.1,1.16-2.24,1.47-3.55c0.45,0.77,0.75,1.52,0.96,2.31c1.09,4.21-0.53,8.43-4.21,10.94
				c-1.97,1.35-4.16,2.08-6.5,2.43c-1.03,0.15-2.06,0.21-3.1,0.24c-0.23,0.01-0.29,0.08-0.28,0.3c0.01,0.69,0,1.38,0.01,2.07
				c0,0.19,0.01,0.37-0.2,0.47c-0.22,0.11-0.37-0.02-0.52-0.15c-2.19-1.83-4.38-3.66-6.57-5.49c-0.3-0.25-0.59-0.51-0.88-0.77"/>
			<path class="st1" d="M21.44,17.22c-0.05,0.51-0.39,0.88-0.66,1.26c-1.78,2.53-4.28,3.92-7.27,4.5c-0.97,0.19-1.94,0.3-2.92,0.36
				c-0.52,0.03-1.04,0.02-1.55,0.05c-0.28,0.02-0.39-0.07-0.37-0.36c0.02-0.71,0.01-1.42,0.01-2.19c-0.47,0.23-0.82,0.54-1.19,0.81
				c-1.89,1.37-3.77,2.76-5.66,4.15c-0.08,0.06-0.17,0.12-0.21,0.21c-0.23-0.09-0.4-0.28-0.57-0.44c-0.21-0.2-0.16-0.42,0.12-0.63
				c0.94-0.69,1.87-1.38,2.81-2.06c1.69-1.24,3.38-2.48,5.07-3.71c0.15-0.12,0.3-0.27,0.53-0.15c0.23,0.12,0.23,0.33,0.23,0.54
				c0.01,0.75,0.01,1.5,0,2.24c0,0.17,0.01,0.28,0.23,0.28c2.36-0.03,4.69-0.2,6.9-1.11c1.83-0.75,3.3-1.94,4.39-3.6
				C21.36,17.32,21.4,17.28,21.44,17.22z"/>
			<path class="st1" d="M3.1,15.6c0.01-0.44,0.33-0.74,0.54-1.06c0.88-1.34,2.02-2.42,3.42-3.23c1.22-0.71,2.54-1.17,3.92-1.45
				c1.02-0.21,2.05-0.32,3.1-0.37c0.47-0.02,0.94-0.03,1.41-0.06c0.31-0.02,0.43,0.06,0.42,0.39c-0.03,0.63-0.01,1.27-0.01,1.9
				c0,0.08-0.04,0.18,0.05,0.23c0.09,0.05,0.14-0.05,0.2-0.09c2.21-1.61,4.41-3.23,6.62-4.85c0.08-0.05,0.12-0.13,0.19-0.2
				c0.23,0.09,0.39,0.28,0.56,0.44c0.21,0.2,0.15,0.42-0.12,0.63c-0.99,0.73-1.98,1.46-2.98,2.19c-1.63,1.19-3.26,2.39-4.89,3.59
				c-0.15,0.11-0.3,0.27-0.52,0.16c-0.24-0.11-0.23-0.32-0.23-0.53c0-0.75,0-1.5,0-2.25c0-0.15,0.02-0.29-0.22-0.29
				c-2.33,0.03-4.64,0.2-6.83,1.07c-1.89,0.76-3.42,1.96-4.53,3.68C3.16,15.54,3.12,15.57,3.1,15.6z"/>
		</g>
	</g>
</g>
</svg>
