<?xml version="1.0" encoding="utf-8"?>
<!-- Generator: Adobe Illustrator 27.0.0, SVG Export Plug-In . SVG Version: 6.00 Build 0)  -->
<svg version="1.1" id="Capa_1" xmlns="http://www.w3.org/2000/svg" xmlns:xlink="http://www.w3.org/1999/xlink" x="0px" y="0px"
	 viewBox="0 0 85.38 79.38" style="enable-background:new 0 0 85.38 79.38;" xml:space="preserve">
<style type="text/css">
	.st0{fill:#FFFFFF;}
	.st1{font-family:'Montserrat-SemiBold';}
	.st2{font-size:6.2425px;}
	.st3{letter-spacing:1;}
</style>
<g>
	<g>
		<g>
			<g>
				<g>
					<path class="st0" d="M68.49,62.15c0,3.9-3.16,7.06-7.06,7.06l-42.68,0l0,0c1.66-4.26,5.76-7.06,10.33-7.06L68.49,62.15
						L68.49,62.15z"/>
				</g>
			</g>
			<g>
				<g>
					<path class="st0" d="M49.24,27.66L36.17,57.48c-0.08,0.18-0.13,0.28-0.16,0.28l0,0c-4.3,0-7.79-3.49-7.79-7.79V17.08l0,0
						c4.04,0,7.31,3.27,7.31,7.31v15.54l3.93-8.58c1.03-2.25,3.27-3.69,5.74-3.69H49.24z M61.43,49.97c0,4.3-3.49,7.79-7.79,7.79
						l0,0c-0.03,0-0.09-0.09-0.2-0.28c-0.13-0.26-0.52-1.12-1.17-2.57c-0.65-1.45-1.4-3.16-2.25-5.14
						c-0.86-1.98-2.01-4.33-2.83-6.17l4.15-10.27c0.37,0.9,0.75,1.81,1.15,2.75c0.4,0.94,0.71,1.69,0.95,2.27l0.67,1.58V24.39
						c0-4.04,3.27-7.31,7.31-7.31l0,0V49.97z"/>
				</g>
			</g>
		</g>
		<g>
			<path class="st0" d="M10.8,74.64l2.89-7.41c1.96-5.03,6.14-8.71,11.3-10.01c-1.45-2.17-2.21-4.66-2.21-7.26V11.64h5.44
				c6.51,0,12,5.03,12.68,11.41c1.37-0.54,2.84-0.82,4.31-0.82h3.66c1.04-6.07,6.34-10.58,12.56-10.58h5.44v38.33
				c0,2.38-0.65,4.69-1.88,6.74h8.94v5.44c0,6.89-5.61,12.49-12.49,12.49L10.8,74.64z M24.15,13v36.97c0,2.64,0.88,5.16,2.54,7.28
				l0.69,0.88l-1.1,0.2c-5.17,0.96-9.4,4.47-11.32,9.39l-2.17,5.56l48.64,0c6.14,0,11.14-4.99,11.14-11.13v-4.08h-10.2l0.8-1.08
				c1.53-2.07,2.34-4.5,2.34-7.02V13h-4.08c-5.74,0-10.6,4.29-11.3,9.99l-0.07,0.6h-4.84c-1.59,0-3.19,0.38-4.62,1.09l-0.95,0.47
				l-0.03-1.06C39.45,17.97,34.34,13,28.22,13H24.15z"/>
		</g>
		<g>
			<g>
				<g>
					<path class="st0" d="M68.49,62.15c0,3.9-3.16,7.06-7.06,7.06l-42.68,0l0,0c1.66-4.26,5.76-7.06,10.33-7.06L68.49,62.15
						L68.49,62.15z"/>
				</g>
			</g>
			<g>
				<g>
					<path class="st0" d="M49.24,27.66L36.17,57.48c-0.08,0.18-0.13,0.28-0.16,0.28l0,0c-4.3,0-7.79-3.49-7.79-7.79V17.08l0,0
						c4.04,0,7.31,3.27,7.31,7.31v15.54l3.93-8.58c1.03-2.25,3.27-3.69,5.74-3.69H49.24z M61.43,49.97c0,4.3-3.49,7.79-7.79,7.79
						l0,0c-0.03,0-0.09-0.09-0.2-0.28c-0.13-0.26-0.52-1.12-1.17-2.57c-0.65-1.45-1.4-3.16-2.25-5.14
						c-0.86-1.98-2.01-4.33-2.83-6.17l4.15-10.27c0.37,0.9,0.75,1.81,1.15,2.75c0.4,0.94,0.71,1.69,0.95,2.27l0.67,1.58V24.39
						c0-4.04,3.27-7.31,7.31-7.31l0,0V49.97z"/>
				</g>
			</g>
		</g>
	</g>
	<g>
		<text transform="matrix(1 0 0 1 71.1107 8.0452)" class="st0 st1 st2 st3">TM</text>
	</g>
</g>
</svg>
