<?xml version="1.0" encoding="utf-8"?>
<!-- Generator: Adobe Illustrator 27.0.0, SVG Export Plug-In . SVG Version: 6.00 Build 0)  -->
<svg version="1.1" id="Capa_1" xmlns="http://www.w3.org/2000/svg" xmlns:xlink="http://www.w3.org/1999/xlink" x="0px" y="0px"
	 viewBox="0 0 151.63 64.82" style="enable-background:new 0 0 151.63 64.82;" xml:space="preserve">
<style type="text/css">
	.st0{fill:#FD9700;}
	
		.st1{clip-path:url(#SVGID_00000142894925032676241070000005416579848808250780_);fill:url(#SVGID_00000163056851705125161420000004807665785936867716_);}
	
		.st2{clip-path:url(#SVGID_00000003827541912771464100000000994498156553026968_);fill:url(#SVGID_00000130633865671324021350000009269288755319437714_);}
	
		.st3{clip-path:url(#SVGID_00000106142735636638668230000000837124666046427799_);fill:url(#SVGID_00000055672813801585095200000015661600207828837520_);}
	.st4{fill:#012D6A;}
	.st5{fill:#1C252C;}
	.st6{fill:#FDEB32;}
	.st7{display:none;fill:none;}
	.st8{fill:none;stroke:#BD291B;stroke-width:0.5252;stroke-miterlimit:46.7176;}
	.st9{fill:#BD291B;}
	.st10{fill:#FDD92C;}
	.st11{fill:#AE1F22;}
</style>
<g>
	<path id="path8_00000149346122777566008560000016219631034909426360_" class="st0" d="M91.61,44.56
		c-7.62,5.62-18.67,8.62-28.19,8.62c-13.34,0-25.35-4.93-34.43-13.14c-0.71-0.65-0.07-1.52,0.78-1.02c9.8,5.7,21.93,9.14,34.45,9.14
		c8.45,0,17.74-1.75,26.28-5.37C91.79,42.23,92.87,43.62,91.61,44.56"/>
	<path id="path10_00000099643777676637038070000016157417739791601323_" class="st0" d="M94.77,40.93c-0.97-1.24-6.44-0.59-8.9-0.3
		c-0.75,0.09-0.86-0.56-0.19-1.03c4.36-3.07,11.51-2.18,12.34-1.15c0.83,1.03-0.22,8.2-4.31,11.62c-0.63,0.53-1.23,0.25-0.95-0.45
		C93.69,47.33,95.75,42.18,94.77,40.93"/>
	<path id="path12_00000097459276035878898550000009416611313326667152_" d="M86.05,17.96v-2.98c0-0.45,0.34-0.75,0.75-0.75h13.35
		c0.43,0,0.77,0.31,0.77,0.75v2.55c-0.01,0.43-0.37,0.99-1.01,1.87L93,29.28c2.57-0.06,5.28,0.32,7.61,1.63
		c0.53,0.3,0.67,0.73,0.71,1.16v3.18c0,0.43-0.48,0.94-0.98,0.68c-4.11-2.15-9.56-2.39-14.1,0.02c-0.46,0.25-0.95-0.25-0.95-0.69
		v-3.02c0-0.49,0.01-1.31,0.49-2.05l8.01-11.49h-6.97C86.39,18.71,86.05,18.4,86.05,17.96"/>
	<path id="path14_00000171701325408349283450000014658045421992950678_" d="M37.37,36.56h-4.06c-0.39-0.03-0.7-0.32-0.73-0.69V15.03
		c0-0.42,0.35-0.75,0.78-0.75h3.79c0.39,0.02,0.71,0.32,0.74,0.7v2.72h0.07c0.99-2.63,2.84-3.86,5.34-3.86
		c2.54,0,4.13,1.23,5.27,3.86c0.98-2.63,3.21-3.86,5.61-3.86c1.7,0,3.56,0.7,4.7,2.28c1.28,1.75,1.02,4.3,1.02,6.53L59.9,35.8
		c0,0.42-0.35,0.75-0.78,0.75h-4.05c-0.41-0.03-0.73-0.35-0.73-0.75V24.76c0-0.88,0.08-3.07-0.11-3.91c-0.3-1.4-1.21-1.79-2.39-1.79
		c-0.98,0-2.01,0.66-2.43,1.71c-0.42,1.05-0.38,2.81-0.38,3.99V35.8c0,0.42-0.35,0.75-0.78,0.75h-4.05
		c-0.41-0.03-0.73-0.35-0.73-0.75l-0.01-11.04c0-2.32,0.38-5.74-2.5-5.74c-2.92,0-2.8,3.33-2.8,5.74V35.8
		C38.15,36.22,37.8,36.56,37.37,36.56"/>
	<path id="path16_00000173146777425960565160000000847796344731227806_" d="M112.41,13.84c6.02,0,9.29,5.17,9.29,11.75
		c0,6.36-3.6,11.4-9.29,11.4c-5.92,0-9.14-5.17-9.14-11.62C103.27,18.88,106.53,13.84,112.41,13.84 M112.44,18.1
		c-2.99,0-3.18,4.08-3.18,6.62c0,2.55-0.04,7.98,3.15,7.98c3.15,0,3.29-4.39,3.29-7.06c0-1.76-0.07-3.86-0.61-5.53
		C114.64,18.66,113.73,18.1,112.44,18.1"/>
	<path id="path18_00000158716881395562815730000005890261243799522712_" d="M129.51,36.56h-4.04c-0.41-0.03-0.73-0.35-0.73-0.75
		l-0.01-20.84c0.03-0.38,0.37-0.68,0.78-0.68h3.76c0.35,0.02,0.65,0.26,0.73,0.58v3.19h0.07c1.14-2.85,2.73-4.21,5.53-4.21
		c1.82,0,3.6,0.66,4.74,2.46c1.06,1.67,1.06,4.47,1.06,6.49V35.9c-0.05,0.37-0.38,0.66-0.78,0.66h-4.07
		c-0.37-0.03-0.68-0.3-0.72-0.66V24.58c0-2.28,0.26-5.61-2.54-5.61c-0.99,0-1.9,0.66-2.35,1.67c-0.57,1.27-0.65,2.54-0.65,3.95V35.8
		C130.29,36.22,129.94,36.56,129.51,36.56"/>
	<path id="path30_00000004514822450042025880000012702682906773119420_" d="M22.18,26.6v-0.88c-2.94,0-6.04,0.63-6.04,4.09
		c0,1.75,0.91,2.94,2.47,2.94c1.14,0,2.16-0.7,2.81-1.84C22.22,29.51,22.18,28.19,22.18,26.6 M26.28,36.5
		c-0.27,0.24-0.66,0.26-0.96,0.1c-1.35-1.12-1.59-1.64-2.33-2.71c-2.23,2.27-3.8,2.95-6.69,2.95c-3.41,0-6.08-2.11-6.08-6.33
		c0-3.29,1.79-5.54,4.33-6.64c2.2-0.97,5.28-1.14,7.63-1.41v-0.53c0-0.97,0.07-2.11-0.49-2.94c-0.5-0.75-1.44-1.06-2.28-1.06
		c-1.55,0-2.93,0.79-3.27,2.44c-0.07,0.37-0.34,0.73-0.7,0.74l-3.94-0.42c-0.33-0.07-0.7-0.34-0.61-0.85
		c0.91-4.77,5.22-6.21,9.08-6.21c1.98,0,4.56,0.53,6.12,2.02c1.98,1.84,1.79,4.31,1.79,6.98v6.33c0,1.9,0.79,2.74,1.53,3.76
		c0.26,0.37,0.32,0.81-0.01,1.08c-0.83,0.69-2.3,1.98-3.11,2.7L26.28,36.5"/>
	<path d="M82.64,32.74c-0.74-1.03-1.53-1.86-1.53-3.76v-6.33c0-2.68,0.19-5.14-1.79-6.98c-1.56-1.5-4.14-2.02-6.12-2.02
		c-3.86,0-8.17,1.44-9.08,6.21c-0.09,0.51,0.27,0.78,0.6,0.85l3.94,0.42c0.37-0.02,0.63-0.38,0.7-0.74
		c0.34-1.64,1.72-2.44,3.27-2.44c0.83,0,1.78,0.31,2.28,1.06c0.57,0.83,0.49,1.98,0.49,2.94v0.53c-2.35,0.27-5.43,0.44-7.63,1.41
		c-2.54,1.1-4.33,3.34-4.33,6.64c0,4.22,2.66,6.33,6.08,6.33c2.89,0,4.47-0.68,6.69-2.95c0.74,1.07,0.98,1.59,2.33,2.71
		c0.3,0.16,0.69,0.14,0.96-0.1l0,0l0.01,0.01c0.81-0.72,2.28-2,3.11-2.7C82.96,33.54,82.9,33.1,82.64,32.74z M74.65,30.91
		c-0.65,1.14-1.67,1.84-2.81,1.84c-1.56,0-2.47-1.19-2.47-2.94c0-3.46,3.1-4.09,6.04-4.09v0.88C75.41,28.19,75.45,29.51,74.65,30.91
		z"/>
</g>
</svg>
