<?xml version="1.0" encoding="utf-8"?>
<!-- Generator: Adobe Illustrator 27.0.0, SVG Export Plug-In . SVG Version: 6.00 Build 0)  -->
<svg version="1.1" id="Capa_1" xmlns="http://www.w3.org/2000/svg" xmlns:xlink="http://www.w3.org/1999/xlink" x="0px" y="0px"
	 viewBox="0 0 151.63 64.82" style="enable-background:new 0 0 151.63 64.82;" xml:space="preserve">
<style type="text/css">
	.st0{fill:#FD9700;}
	.st1{fill:#E33238;}
	.st2{fill:#0064D0;}
	.st3{fill:#F4AD02;}
	.st4{fill:#84B618;}
	
		.st5{clip-path:url(#SVGID_00000032627878542773090500000004267123709996157333_);fill:url(#SVGID_00000036967223600982102860000003471188827400454280_);}
	
		.st6{clip-path:url(#SVGID_00000012452133442149018030000014131606202809879178_);fill:url(#SVGID_00000151542586446471590930000007738972865877021065_);}
	
		.st7{clip-path:url(#SVGID_00000158710507820525476420000008481301791797796497_);fill:url(#SVGID_00000130613881021065631120000016493528072963575190_);}
	.st8{fill:#012D6A;}
	.st9{fill:#1C252C;}
	.st10{fill:#FDEB32;}
	.st11{display:none;fill:none;}
	.st12{fill:none;stroke:#BD291B;stroke-width:0.5252;stroke-miterlimit:46.7176;}
	.st13{fill:#BD291B;}
	.st14{fill:#FDD92C;}
	.st15{fill:#AE1F22;}
	.st16{fill:#1D1D1B;}
</style>
<g>
	<path class="st16" d="M43.06,20.13c1.26-1.53,2.11-3.65,1.88-5.76c-1.82,0.07-4.01,1.21-5.32,2.74c-1.17,1.35-2.2,3.51-1.91,5.58
		C39.73,22.84,41.8,21.65,43.06,20.13"/>
	<path class="st16" d="M63.52,38.03l-2.1,6.33h-2.68l6.84-20.13h3.14l6.87,20.13h-2.78l-2.15-6.33H63.52z M70.12,36l-1.97-5.79
		c-0.45-1.32-0.75-2.51-1.04-3.67h-0.06l-1.02,3.66l-1.97,5.82L70.12,36z"/>
	<path class="st16" d="M77.62,34.63l-0.12-4.72h2.36l0.12,2.48h0.06c1.07-1.76,2.78-2.81,5.14-2.81c3.5,0,6.12,2.96,6.12,7.35
		c0,5.2-3.16,7.76-6.57,7.76c-1.91,0-3.58-0.84-4.45-2.27h-0.06v7.86h-2.6L77.62,34.63z M80.22,38.48c0,0.4,0.06,0.75,0.12,1.07
		c0.48,1.82,2.06,3.08,3.94,3.08c2.78,0,4.4-2.27,4.4-5.59c0-2.9-1.52-5.37-4.3-5.37c-1.8,0-3.46,1.29-3.97,3.26
		c-0.11,0.35-0.17,0.71-0.18,1.07v2.48L80.22,38.48z M94.01,34.63l-0.12-4.72h2.36l0.12,2.48h0.06c1.07-1.76,2.78-2.81,5.14-2.81
		c3.5,0,6.12,2.96,6.12,7.35c0,5.2-3.16,7.76-6.57,7.76c-1.91,0-3.58-0.84-4.45-2.27h-0.06v7.86h-2.6L94.01,34.63z M96.61,38.48
		c0,0.4,0.06,0.75,0.12,1.07c0.48,1.82,2.06,3.08,3.94,3.08c2.78,0,4.4-2.27,4.4-5.59c0-2.9-1.52-5.37-4.3-5.37
		c-1.8,0-3.46,1.29-3.97,3.26c-0.11,0.35-0.17,0.71-0.18,1.07v2.48L96.61,38.48z M110.41,23.16h2.63v21.2h-2.63V23.16z
		 M118.32,37.61c0.06,3.55,2.33,5.02,4.96,5.02c1.88,0,3.01-0.33,4-0.75l0.45,1.88c-0.93,0.42-2.5,0.9-4.81,0.9
		c-4.45,0-7.11-2.93-7.11-7.29s2.57-7.8,6.78-7.8c4.72,0,5.97,4.15,5.97,6.8c0,0.54-0.06,0.95-0.1,1.22L118.32,37.61z M126.03,35.73
		c0.03-1.67-0.69-4.27-3.64-4.27c-2.66,0-3.82,2.45-4.03,4.27H126.03z"/>
	<path class="st16" d="M47.6,33.54c-0.04-4.57,3.73-6.76,3.9-6.87c-2.12-3.11-5.42-3.53-6.6-3.58c-2.81-0.29-5.48,1.65-6.91,1.65
		s-3.62-1.61-5.95-1.57c-3.06,0.05-5.89,1.78-7.47,4.52c-3.18,5.52-0.81,13.7,2.29,18.18c1.52,2.19,3.32,4.66,5.7,4.57
		c2.29-0.09,3.15-1.48,5.91-1.48s3.54,1.48,5.95,1.43c2.46-0.05,4.02-2.24,5.52-4.44c1.74-2.54,2.45-5.01,2.5-5.13
		C52.39,40.81,47.65,39,47.6,33.54"/>
</g>
</svg>
