<?xml version="1.0" encoding="utf-8"?>
<!-- Generator: Adobe Illustrator 27.0.0, SVG Export Plug-In . SVG Version: 6.00 Build 0)  -->
<svg version="1.1" id="Capa_1" xmlns="http://www.w3.org/2000/svg" xmlns:xlink="http://www.w3.org/1999/xlink" x="0px" y="0px"
	 viewBox="0 0 151.63 64.82" style="enable-background:new 0 0 151.63 64.82;" xml:space="preserve">
<style type="text/css">
	.st0{fill:#1C252C;}
	.st1{fill:#FDEB32;}
	.st2{display:none;fill:none;}
	.st3{fill:none;stroke:#BD291B;stroke-width:0.5252;stroke-miterlimit:46.7176;}
	.st4{fill:#BD291B;}
	.st5{fill:#FDD92C;}
	.st6{fill:#AE1F22;}
</style>
<g transform="translate(-137.5,-22.390163)">
	<path id="path2998_00000068650032697361513960000001121293865741243525_" class="st0" d="M176.8,35.53v18.42h9.65
		c3.8,0,7.31-1.33,7.31-5.25c0-2.65-1.91-3.85-4-4.49c1.28-0.51,2.73-1.59,2.73-3.85c0-2.89-2.87-4.85-6.72-4.85H176.8L176.8,35.53z
		 M182.71,39.82h2.17c0.88,0,1.56,0.69,1.56,1.4c0,0.65-0.7,1.35-1.56,1.35h-2.17V39.82L182.71,39.82z M182.71,46.4h2.87
		c1,0,1.84,0.76,1.84,1.63c0,0.92-0.79,1.69-2.02,1.69h-2.69V46.4L182.71,46.4z"/>
	<path id="path3005_00000083801897660133632540000007946302508733509298_" class="st0" d="M181.58,55.97v18.42h9.65
		c3.8,0,7.31-1.33,7.31-5.25c0-2.65-1.91-3.85-4-4.49c1.28-0.51,2.73-1.59,2.73-3.85c0-2.89-2.87-4.85-6.72-4.85H181.58
		L181.58,55.97z M187.49,60.26h2.17c0.88,0,1.56,0.69,1.56,1.4c0,0.65-0.7,1.35-1.56,1.35h-2.17V60.26L187.49,60.26z M187.49,66.83
		h2.87c1,0,1.84,0.76,1.84,1.63c0,0.92-0.79,1.69-2.02,1.69h-2.69L187.49,66.83L187.49,66.83z"/>
	<path id="path3007_00000084496379892535002710000014617910075303027621_" class="st0" d="M194.22,53.96V35.53h14.86v4.45h-8.97
		v2.42h7.28v4.17h-7.28v2.95h8.97v4.43H194.22z"/>
	<path id="path3009_00000070818767953126118320000017949054119775425940_" class="st0" d="M217.13,54.48c4.18,0,7.53-2.39,7.53-6.25
		c0-6.24-8.12-5.28-8.12-7.22c0-0.75,0.79-1.15,1.6-1.15c1.4,0,2.4,0.92,2.4,0.92l3.49-3.33c-1.4-1.33-3.6-2.45-6.58-2.45
		c-4.46,0-7.38,2.65-7.38,5.85c0,6.32,8,5.4,8,7.39c0,0.7-0.67,1.39-1.88,1.39c-1.38,0-2.47-0.83-3.32-1.54l-3.51,3.35
		C210.78,52.82,213.05,54.48,217.13,54.48z"/>
	<path id="path3011_00000094591487930894727560000010161523085094071708_" class="st0" d="M229.21,53.96V39.96h-4.87v-4.43h15.64
		v4.43h-4.87v13.99H229.21z"/>
	<path id="path3013_00000010278016736433642340000000033115400479474097_" class="st0" d="M198.74,55.96h5.89v11.04
		c0,1.12,1.12,2.15,2.28,2.15c1.1,0,2.21-0.93,2.21-2.21V55.96h5.88v10.9c0,4.33-3.59,7.78-8.24,7.78c-4.67,0-8.02-3.76-8.02-8.01
		V55.96z"/>
	<path id="path3015_00000151507719518212205770000003305487770819621281_" class="st0" d="M222.26,74.38V67.8l-6.93-11.84h5.96
		l3.92,6.34l3.93-6.34h5.98l-6.95,11.91v6.52H222.26z"/>
	<path id="path3017_00000181044994416501382250000015357573039717833635_" class="st1" d="M235.12,66.04l-3.48,3.48v4.69l3.48,3.48
		h14.71V66.04H235.12z"/>
	<path id="path3024_00000016067115184297279580000001991807357634485393_" class="st0" d="M234.55,71.86c0,0.43-0.35,0.78-0.78,0.78
		s-0.78-0.35-0.78-0.78c0-0.43,0.35-0.78,0.78-0.78S234.55,71.43,234.55,71.86z"/>
</g>
</svg>
