<?xml version="1.0" encoding="utf-8"?>
<!-- Generator: Adobe Illustrator 27.0.0, SVG Export Plug-In . SVG Version: 6.00 Build 0)  -->
<svg version="1.1" id="Capa_1" xmlns="http://www.w3.org/2000/svg" xmlns:xlink="http://www.w3.org/1999/xlink" x="0px" y="0px"
	 viewBox="0 0 151.63 64.82" style="enable-background:new 0 0 151.63 64.82;" xml:space="preserve">
<style type="text/css">
	.st0{display:none;fill:none;}
	.st1{fill:none;stroke:#BD291B;stroke-width:0.5252;stroke-miterlimit:46.7176;}
	.st2{fill:#BD291B;}
	.st3{fill:#FDD92C;}
	.st4{fill:#AE1F22;}
</style>
<g id="g70_00000164482591602238591380000009809796351046937498_">
	<g id="g6_00000113342428079100037780000015674074731065893270_">
		
			<rect id="rect2_00000121259559496736464680000012153835400856457136_" x="40.23" y="8.29" class="st0" width="71.16" height="49"/>
		
			<rect id="rect4_00000012464843110044518690000003910277535026155691_" x="41.7" y="9.61" class="st1" width="68.27" height="46.37"/>
	</g>
	<g id="g68_00000118387803202104796780000008954695214058294166_">
		<path id="path10_00000003104739270025242450000000408312422802686852_" class="st2" d="M44.91,12.81h12.66
			c5.78,0,11.71,1.37,11.71,8.3c0,2.63-1.31,5.2-3.94,6.04v0.26c3.26,1.16,5.3,3.52,5.3,7.09c0,6.14-5.72,8.25-10.98,8.25H44.91
			V12.81z M55.99,24.31c1.58,0,3.36-0.16,3.36-2.21c0-2.21-2.05-2.05-3.62-2.05h-0.74v4.31h1V24.31z M54.99,35.6h1.21
			c1.79,0,4.36-0.05,4.36-2.52c0-2.52-2.78-2.47-4.52-2.47h-1.05V35.6z"/>
		<path id="path12_00000166634039701953643320000001018777673687212458_" class="st2" d="M79.1,12.81h10.5v10.08h6.67V12.81h10.5
			V42.8h-10.5V32.35H89.6v10.4H79.1V12.81z"/>
		
			<rect id="rect14_00000003079236318549959860000007990155745293487285_" x="44.91" y="44.43" class="st2" width="61.87" height="8.35"/>
		<g id="g56_00000034048193704158992770000009570445644359086497_">
			<path id="path16_00000105408887286566923950000007198685396787162531_" class="st3" d="M46.38,50.52v-3.78h0.84
				c0.16,0,1.42-0.11,1.42,1.1c0,0.74-0.53,1.1-1.26,1.1h-0.16v1.58H46.38z M47.16,48.37c0.42,0,0.63-0.11,0.63-0.53
				c0-0.26-0.11-0.47-0.47-0.47h-0.16V48.37z"/>
			<path id="path18_00000000190588202125079390000015549842131936471451_" class="st3" d="M49.84,46.74v1.47h0.84v-1.47h0.84v3.78
				h-0.84v-1.63h-0.84v1.63H49v-3.78H49.84z"/>
			<path id="path20_00000052069061407797341920000010179772386739593881_" class="st3" d="M54.83,48.63c0,1.42-0.74,1.94-1.47,1.94
				c-0.74,0-1.47-0.53-1.47-1.94c0-1.42,0.74-1.94,1.47-1.94C54.1,46.69,54.83,47.21,54.83,48.63z M53.36,49.89
				c0.53,0,0.58-0.95,0.58-1.26s-0.05-1.26-0.58-1.26c-0.53,0-0.58,0.95-0.58,1.26C52.78,48.94,52.84,49.89,53.36,49.89z"/>
			<path id="path22_00000183242575892918151370000006145547873153286021_" class="st3" d="M57.2,46.74v0.68h-0.63v3.1h-0.84v-3.1
				h-0.63v-0.68H57.2z"/>
			<path id="path24_00000009590649467295368310000002236064251698769595_" class="st3" d="M60.29,48.63c0,1.42-0.74,1.94-1.47,1.94
				s-1.47-0.53-1.47-1.94c0-1.42,0.74-1.94,1.47-1.94C59.56,46.69,60.29,47.21,60.29,48.63z M58.82,49.89
				c0.53,0,0.58-0.95,0.58-1.26s-0.05-1.26-0.58-1.26c-0.53,0-0.58,0.95-0.58,1.26C58.25,48.94,58.3,49.89,58.82,49.89z"/>
			<path id="path26_00000088819700648594561230000011615964552428470455_" class="st3" d="M63.34,48.52v0.68h-1.42v-0.68H63.34z"/>
			<path id="path28_00000168112170315565982500000009412256376632377988_" class="st3" d="M65.76,46.74l0.47,1.84
				c0.05,0.21,0.11,0.42,0.16,0.63l0,0c0.05-0.21,0.05-0.42,0.11-0.68l0.53-1.84h0.84l-1.16,3.78h-0.68l-1.21-3.78h0.95V46.74z"/>
			<path id="path30_00000021079353222759268100000008069808351164305545_" class="st3" d="M69.06,46.74v3.78h-0.84v-3.78H69.06z"/>
			<path id="path32_00000033352579993826974280000004693594006052353700_" class="st3" d="M69.59,50.52v-3.78h0.63
				c0.16,0,1.89-0.21,1.89,1.94c0,1.1-0.47,1.89-1.79,1.89h-0.74V50.52z M71.27,48.63c0-0.47-0.16-1.26-0.84-1.26v2.47
				C71.11,49.89,71.27,49.1,71.27,48.63z"/>
			<path id="path34_00000123412896096511679490000003220947067723825071_" class="st3" d="M74.16,46.74v0.68h-0.84v0.84h0.74v0.68
				h-0.74v0.84h0.84v0.68h-1.68v-3.78h1.68V46.74z"/>
			<path id="path36_00000000193688424875254170000003805148469931258244_" class="st3" d="M77.47,48.63c0,1.42-0.74,1.94-1.47,1.94
				s-1.47-0.53-1.47-1.94c0-1.42,0.74-1.94,1.47-1.94C76.73,46.69,77.47,47.21,77.47,48.63z M76,49.89c0.53,0,0.58-0.95,0.58-1.26
				s-0.05-1.26-0.58-1.26s-0.58,0.95-0.58,1.26C75.37,48.94,75.42,49.89,76,49.89z"/>
			<path id="path38_00000172422486099343709730000000143758351781020562_" class="st3" d="M80.46,48.52v0.68H79.1v-0.68H80.46z"/>
			<path id="path40_00000160875134908651591080000017905066624595774108_" class="st3" d="M82.25,50.52v-3.78h0.84
				c0.16,0,1.42-0.11,1.42,1.1c0,0.74-0.53,1.1-1.26,1.1h-0.16v1.58H82.25z M83.09,48.37c0.42,0,0.63-0.11,0.63-0.53
				c0-0.26-0.11-0.47-0.47-0.47h-0.16L83.09,48.37L83.09,48.37z"/>
			<path id="path42_00000151508300245198047160000015518461933180877476_" class="st3" d="M84.93,50.52v-3.78h0.84
				c0.53,0,1.47,0.05,1.47,1.1c0,0.42-0.16,0.79-0.58,1l0.74,1.73H86.5l-0.74-1.73l0,0v1.73h-0.84V50.52z M85.71,48.37h0.16
				c0.37,0,0.53-0.21,0.53-0.53c0-0.26-0.16-0.47-0.58-0.47h-0.11V48.37L85.71,48.37z"/>
			<path id="path44_00000083084556410362267920000009588794018623340710_" class="st3" d="M90.6,48.63c0,1.42-0.74,1.94-1.47,1.94
				c-0.74,0-1.47-0.53-1.47-1.94c0-1.42,0.74-1.94,1.47-1.94C89.86,46.69,90.6,47.21,90.6,48.63z M89.13,49.89
				c0.53,0,0.58-0.95,0.58-1.26s-0.05-1.26-0.58-1.26s-0.58,0.95-0.58,1.26C88.55,48.94,88.6,49.89,89.13,49.89z"/>
			<path id="path46_00000178172366994266248050000012168111979553966989_" class="st3" d="M93.96,46.74l1,3.78h-0.89l-0.16-0.63
				h-0.84l-0.16,0.63h-0.84l0.95-3.78L93.96,46.74L93.96,46.74z M93.59,48.26l-0.11-0.58l0,0l-0.11,0.58l-0.16,1h0.58L93.59,48.26z"
				/>
			<path id="path48_00000082368547437899330500000010882925607706839985_" class="st3" d="M96.06,46.74v2.47
				c0,0.26-0.05,0.74,0.42,0.74c0.42,0,0.42-0.26,0.42-0.58v-2.63h0.84v2.78c0,0.42-0.05,1.1-1.26,1.1c-0.79,0-1.21-0.32-1.21-1.05
				v-2.84H96.06z"/>
			<path id="path50_00000142173197665497594660000005469788342004217235_" class="st3" d="M98.21,50.52v-3.78h0.63
				c0.16,0,1.89-0.21,1.89,1.94c0,1.1-0.47,1.89-1.79,1.89h-0.74V50.52z M99.89,48.63c0-0.47-0.16-1.26-0.84-1.26v2.47
				C99.74,49.89,99.89,49.1,99.89,48.63z"/>
			<path id="path52_00000099653789001185128740000011672223613985381549_" class="st3" d="M101.94,46.74v3.78h-0.84v-3.78H101.94z"
				/>
			<path id="path54_00000147940687046442226860000013282928225731572925_" class="st3" d="M105.3,48.63c0,1.42-0.74,1.94-1.47,1.94
				s-1.47-0.53-1.47-1.94c0-1.42,0.74-1.94,1.47-1.94C104.57,46.69,105.3,47.21,105.3,48.63z M103.83,49.89
				c0.53,0,0.58-0.95,0.58-1.26s-0.05-1.26-0.58-1.26c-0.53,0-0.58,0.95-0.58,1.26C103.25,48.94,103.31,49.89,103.83,49.89z"/>
		</g>
		<g id="g64_00000037658577710064816240000017093693559740874943_">
			<path id="path58_00000170965353414430549170000009875507833283852161_" class="st4" d="M69.17,24.63c0,1.21,0.95,2.21,1.79,3.1
				c-2.42,1.21-4.88,2.47-4.88,5.15c0,2.42,2.73,4.41,6.09,4.41c2.47,0,4.57-1.16,6.3-2.26c0.26,0.26,2.05,2.05,2.05,2.05h3.62
				c0,0-3.26-3.2-3.62-3.57c0.37-0.37,2.57-2.26,2.57-2.26l-2.1-1.31c0,0-1.84,1.63-2.21,1.94c-0.32-0.32-3.2-3.1-3.68-3.57
				c1.68-0.95,3.31-1.94,3.31-3.78s-2-3.26-4.52-3.26C71.11,21.16,69.17,22.63,69.17,24.63z M66.65,32.87
				c0-2.31,2.26-3.47,4.67-4.67l0.58-0.32l-0.47-0.53c-0.84-0.84-1.68-1.73-1.68-2.73c0-1.68,1.68-2.89,4.04-2.89
				c2.21,0,3.89,1.16,3.89,2.63c0,1.58-1.58,2.47-3.2,3.41L74,28.04l4.67,4.52c0,0,2-1.73,2.26-2c0.21,0.16,0.74,0.42,1.05,0.68
				c-0.47,0.42-2.47,2.15-2.47,2.15s2.31,2.26,3.05,2.99c-0.74,0-1.79,0-1.94,0c-0.16-0.16-2.21-2.21-2.21-2.21l-0.21,0.16
				c-1.58,1.16-3.68,2.31-6.09,2.31C69.12,36.65,66.65,34.97,66.65,32.87z"/>
			<path id="path60_00000181785655474651636480000017335238273737277882_" class="st4" d="M71.27,24.1c0,0.79,0.53,1.31,1.05,1.84
				l0.89,0.89l0.37-0.21L74,26.36c1-0.58,2.21-1.21,2.21-2.42c0-1.05-1.05-1.84-2.47-1.84C72.37,22.16,71.27,23,71.27,24.1z
				 M72.74,25.57c-0.42-0.47-0.84-0.95-0.84-1.47c0-0.74,0.84-1.37,1.89-1.37c0.89,0,1.84,0.47,1.84,1.26
				c0,0.89-0.89,1.37-1.89,1.94c0,0-0.37,0.21-0.42,0.21C73.16,25.99,72.74,25.57,72.74,25.57z"/>
			<path id="path62_00000041287849211963273910000009913865115782839480_" class="st4" d="M71.43,29.2
				c-1.52,0.79-3.41,1.79-3.41,3.47c0,1.58,1.79,2.99,3.78,2.99c2.05,0,3.78-1.16,5.2-2.1l0.42-0.26l-4.83-4.67L71.43,29.2z
				 M72.48,29.3c0.26,0.26,3.52,3.47,3.99,3.89c-1.31,0.84-2.89,1.84-4.67,1.84c-1.68,0-3.2-1.16-3.2-2.42
				c0-1.37,1.63-2.21,3.1-2.94C71.69,29.72,72.22,29.41,72.48,29.3z"/>
		</g>
		<path id="path66_00000150077004424845294980000004799814249717219480_" class="st3" d="M78.47,34.61
			c-1.73,1.21-3.83,2.36-6.3,2.36c-2.99,0-5.78-1.73-5.78-4.1c0-2.52,2.36-3.68,4.83-4.94l0.26-0.11c-0.89-0.95-1.94-1.94-1.94-3.2
			c0-1.89,1.84-3.2,4.31-3.2c2.21,0,4.2,1.21,4.2,2.94c0,1.79-1.79,2.78-3.47,3.73l4.15,4.04l2.21-1.94l1.58,1l-2.52,2.21l3.36,3.26
			h-2.78L78.47,34.61z M73.42,26.41c1.1-0.63,2.47-1.21,2.47-2.42c0-0.89-1-1.52-2.15-1.52c-1.21,0-2.15,0.74-2.15,1.63
			c0,0.74,0.63,1.31,1.21,1.89l0.47,0.47L73.42,26.41z M71.59,29.41c-1.47,0.79-3.26,1.68-3.26,3.2c0,1.42,1.63,2.68,3.47,2.68
			c2,0,3.73-1.16,5.15-2.1l-4.41-4.31L71.59,29.41z"/>
	</g>
</g>
</svg>
