<?xml version="1.0" encoding="utf-8"?>
<!-- Generator: Adobe Illustrator 27.0.0, SVG Export Plug-In . SVG Version: 6.00 Build 0)  -->
<svg version="1.1" id="Capa_1" xmlns="http://www.w3.org/2000/svg" xmlns:xlink="http://www.w3.org/1999/xlink" x="0px" y="0px"
	 viewBox="0 0 151.63 64.82" style="enable-background:new 0 0 151.63 64.82;" xml:space="preserve">
<style type="text/css">
	.st0{fill:#FD9700;}
	.st1{fill:#E33238;}
	.st2{fill:#0064D0;}
	.st3{fill:#F4AD02;}
	.st4{fill:#84B618;}
	
		.st5{clip-path:url(#SVGID_00000070084327612980311300000005807209551394813872_);fill:url(#SVGID_00000046312314097053803840000012946937424725645717_);}
	
		.st6{clip-path:url(#SVGID_00000027571182518237911790000009942978826948965538_);fill:url(#SVGID_00000041267035643894679360000015011956061139936434_);}
	
		.st7{clip-path:url(#SVGID_00000132073071234474565090000010711040832452513976_);fill:url(#SVGID_00000067209038659019869880000006177376989069379224_);}
	.st8{fill:#012D6A;}
	.st9{fill:#1C252C;}
	.st10{fill:#FDEB32;}
	.st11{display:none;fill:none;}
	.st12{fill:none;stroke:#BD291B;stroke-width:0.5252;stroke-miterlimit:46.7176;}
	.st13{fill:#BD291B;}
	.st14{fill:#FDD92C;}
	.st15{fill:#AE1F22;}
</style>
<g>
	<path id="e_00000097490478950383375320000001560172223140797843_" class="st1" d="M41.03,23.81c-6.62,0-12.13,2.81-12.13,11.28
		c0,6.71,3.71,10.94,12.3,10.94c10.12,0,10.77-6.66,10.77-6.66h-4.9c0,0-1.05,3.59-6.16,3.59c-4.16,0-7.16-2.81-7.16-6.75h18.74
		v-2.47C52.48,29.82,50,23.81,41.03,23.81L41.03,23.81z M40.86,26.97c3.96,0,6.66,2.43,6.66,6.07H33.85
		C33.85,29.18,37.38,26.97,40.86,26.97z"/>
	<path id="b_00000090279020102618212320000001692771773036074139_" class="st2" d="M52.48,15.61v26.16c0,1.49-0.11,3.57-0.11,3.57
		h4.68c0,0,0.17-1.5,0.17-2.87c0,0,2.31,3.61,8.59,3.61c6.61,0,11.11-4.59,11.11-11.17c0-6.12-4.13-11.04-11.1-11.04
		c-6.53,0-8.56,3.52-8.56,3.52V15.61L52.48,15.61z M64.61,27.11c4.49,0,7.35,3.33,7.35,7.81c0,4.8-3.3,7.94-7.32,7.94
		c-4.79,0-7.38-3.74-7.38-7.89C57.26,31.1,59.58,27.11,64.61,27.11z"/>
	<path id="a_00000011752328884918156260000007664598562203956133_" class="st3" d="M88.53,23.81c-9.96,0-10.6,5.45-10.6,6.32h4.96
		c0,0,0.26-3.18,5.3-3.18c3.27,0,5.81,1.5,5.81,4.38v1.03h-5.81c-7.71,0-11.79,2.26-11.79,6.84c0,4.51,3.77,6.96,8.86,6.96
		c6.94,0,9.17-3.83,9.17-3.83c0,1.53,0.12,3.03,0.12,3.03h4.41c0,0-0.17-1.86-0.17-3.05v-10.3C98.79,25.23,93.34,23.81,88.53,23.81
		L88.53,23.81z M94,35.43v1.37c0,1.78-1.1,6.22-7.58,6.22c-3.55,0-5.07-1.77-5.07-3.82C81.36,35.46,86.48,35.43,94,35.43L94,35.43z"
		/>
	<path id="y_00000087393216804661591630000001359851675329093010_" class="st4" d="M96.12,24.67h5.58l8,16.03l7.98-16.03h5.05
		l-14.54,28.54h-5.3l4.2-7.96L96.12,24.67z"/>
</g>
</svg>
