<?xml version="1.0" encoding="utf-8"?>
<!-- Generator: Adobe Illustrator 27.0.0, SVG Export Plug-In . SVG Version: 6.00 Build 0)  -->
<svg version="1.1" id="Capa_1" xmlns="http://www.w3.org/2000/svg" xmlns:xlink="http://www.w3.org/1999/xlink" x="0px" y="0px"
	 viewBox="0 0 151.63 64.82" style="enable-background:new 0 0 151.63 64.82;" xml:space="preserve">
<style type="text/css">
	
		.st0{clip-path:url(#SVGID_00000159434794258574816640000017517885037564752292_);fill:url(#SVGID_00000014620952892734267780000001454153571272017292_);}
	
		.st1{clip-path:url(#SVGID_00000039853700488252240360000005393102855407371665_);fill:url(#SVGID_00000054245050542750309200000013434079099578584755_);}
	
		.st2{clip-path:url(#SVGID_00000100383300424521280790000011764797560180552083_);fill:url(#SVGID_00000163052988536196521580000004992769588968819328_);}
	.st3{fill:#012D6A;}
	.st4{fill:#1C252C;}
	.st5{fill:#FDEB32;}
	.st6{display:none;fill:none;}
	.st7{fill:none;stroke:#BD291B;stroke-width:0.5252;stroke-miterlimit:46.7176;}
	.st8{fill:#BD291B;}
	.st9{fill:#FDD92C;}
	.st10{fill:#AE1F22;}
</style>
<g>
	<g>
		<g>
			<defs>
				<path id="SVGID_1_" d="M36.85,26.22c-5.65,9.07-3.83,20.52,4.06,25.57c4.55,2.91,10.12,3.06,15.12,0.92
					c-0.7-0.31-1.38-0.68-2.04-1.1c-7.89-5.06-9.7-16.5-4.04-25.57c3.04-4.89,8.41-9.36,13.95-11.67c-1.68-1.01-3.62-1.46-5.67-1.46
					C50.58,12.9,41.26,19.13,36.85,26.22"/>
			</defs>
			<clipPath id="SVGID_00000101067529915651118630000014016870399272824216_">
				<use xlink:href="#SVGID_1_"  style="overflow:visible;"/>
			</clipPath>
			
				<radialGradient id="SVGID_00000157275292504409949560000007812103861898205090_" cx="-222.677" cy="-287.3218" r="0.1408" gradientTransform="matrix(100.0291 0 0 138.5229 22322.9141 39834.1914)" gradientUnits="userSpaceOnUse">
				<stop  offset="0" style="stop-color:#FFFFFF"/>
				<stop  offset="0.2708" style="stop-color:#FFFFFF"/>
				<stop  offset="0.4595" style="stop-color:#F8F8F8"/>
				<stop  offset="0.6858" style="stop-color:#EAEAE9"/>
				<stop  offset="0.9303" style="stop-color:#D3D2D1"/>
				<stop  offset="1" style="stop-color:#CBCAC9"/>
			</radialGradient>
			
				<rect x="31.21" y="12.9" style="clip-path:url(#SVGID_00000101067529915651118630000014016870399272824216_);fill:url(#SVGID_00000157275292504409949560000007812103861898205090_);" width="32.68" height="41.96"/>
		</g>
	</g>
	<g>
		<g>
			<defs>
				<path id="SVGID_00000137828462432848939790000016953440200619307948_" d="M71.96,12.81c-2.38,0.15-4.9,0.89-7.36,2.03
					c-4.72,2.18-9.22,5.89-12.17,9.98c-0.28,0.39-0.55,0.8-0.8,1.21c-5.65,9.08-3.83,20.53,4.06,25.58c0.41,0.25,0.82,0.49,1.23,0.7
					c1.99,1.01,4.11,1.55,6.29,1.65c-0.21,0.01-0.42,0.01-0.62,0.03c0.2,0.01,0.38,0.03,0.58,0.04c2.6,0.11,5.25-0.41,7.74-1.51
					c-0.61-0.28-1.2-0.61-1.76-0.97c-2.1-1.34-3.76-3.14-4.97-5.22c-3.35-5.76-3.22-13.69,0.93-20.35c1.03-1.65,2.31-3.24,3.79-4.73
					c2.84-2.87,6.38-5.32,9.98-6.86h-0.01c-1.73-1.11-3.75-1.61-5.9-1.61C72.6,12.77,72.28,12.78,71.96,12.81"/>
			</defs>
			<clipPath id="SVGID_00000106105752107983804340000001044207971423802775_">
				<use xlink:href="#SVGID_00000137828462432848939790000016953440200619307948_"  style="overflow:visible;"/>
			</clipPath>
			
				<radialGradient id="SVGID_00000064344659702256945840000008688370604192348050_" cx="-223.4052" cy="-287.137" r="0.1408" gradientTransform="matrix(107.2118 0 0 135.3389 24015.2578 38894.2109)" gradientUnits="userSpaceOnUse">
				<stop  offset="0" style="stop-color:#FDE431"/>
				<stop  offset="0.19" style="stop-color:#FDE431"/>
				<stop  offset="0.4324" style="stop-color:#F9BF2D"/>
				<stop  offset="0.9709" style="stop-color:#F06225"/>
				<stop  offset="1" style="stop-color:#EF5D25"/>
			</radialGradient>
			
				<rect x="45.98" y="12.77" style="clip-path:url(#SVGID_00000106105752107983804340000001044207971423802775_);fill:url(#SVGID_00000064344659702256945840000008688370604192348050_);" width="32.86" height="41.37"/>
		</g>
	</g>
	<g>
		<g>
			<defs>
				<path id="SVGID_00000025425191468775590910000007020013751760712586_" d="M87.14,12.68c-2.48,0.17-5.1,0.94-7.65,2.17
					c-3.82,1.82-7.48,4.62-10.25,7.8c-0.93,1.07-1.77,2.18-2.48,3.32c-3.83,6.15-4.22,13.39-1.63,19c1.24,2.66,3.14,4.96,5.67,6.59
					c0.31,0.2,0.63,0.39,0.96,0.56c2.06,1.11,4.28,1.69,6.56,1.79c6.34,0.28,12.98-3.24,16.98-9.65c5.65-9.07,6.59-24.95-1.3-29.99
					c-1.72-1.11-3.73-1.61-5.87-1.61C87.81,12.64,87.47,12.66,87.14,12.68"/>
			</defs>
			<clipPath id="SVGID_00000129178320317107392920000002839463434487169927_">
				<use xlink:href="#SVGID_00000025425191468775590910000007020013751760712586_"  style="overflow:visible;"/>
			</clipPath>
			
				<radialGradient id="SVGID_00000096761632127499523650000003903296103940976259_" cx="-224.4279" cy="-285.6347" r="0.1408" gradientTransform="matrix(107.2931 0 0 113.563 24161.168 32470.8086)" gradientUnits="userSpaceOnUse">
				<stop  offset="0" style="stop-color:#FFFFFF"/>
				<stop  offset="0.2708" style="stop-color:#FFFFFF"/>
				<stop  offset="0.4595" style="stop-color:#F8F8F8"/>
				<stop  offset="0.6858" style="stop-color:#EAEAE9"/>
				<stop  offset="0.9303" style="stop-color:#D3D2D1"/>
				<stop  offset="1" style="stop-color:#CBCAC9"/>
			</radialGradient>
			
				<rect x="62.54" y="12.64" style="clip-path:url(#SVGID_00000129178320317107392920000002839463434487169927_);fill:url(#SVGID_00000096761632127499523650000003903296103940976259_);" width="39.37" height="41.52"/>
		</g>
	</g>
	<g>
		<path class="st3" d="M67.59,29l-0.31,0.96c0.32-0.38,0.68-0.66,1.06-0.86c0.37-0.18,0.76-0.3,1.2-0.3c0.54,0,0.93,0.13,1.21,0.37
			c0.27,0.25,0.41,0.58,0.39,0.96c0,0.38-0.13,1.03-0.35,1.94l-1.86,7.27l-3.11,0.01l1.83-7.18c0.18-0.72,0.27-1.15,0.27-1.31
			c0-0.15-0.11-0.23-0.32-0.23s-0.37,0.1-0.48,0.27c-0.1,0.18-0.25,0.66-0.45,1.44l-1.79,7.01l-3.11,0.03L64.41,29H67.59z"/>
		<path class="st3" d="M78.32,34.27l-4.01,0.03l-0.58,2.24c-0.11,0.46-0.17,0.77-0.14,0.92c0.03,0.14,0.14,0.2,0.32,0.2
			c0.24,0,0.41-0.08,0.54-0.27c0.13-0.18,0.25-0.52,0.38-1.04l0.35-1.37l2.96-0.03l-0.2,0.76c-0.17,0.63-0.32,1.13-0.49,1.48
			c-0.17,0.35-0.45,0.72-0.84,1.1c-0.38,0.39-0.83,0.69-1.32,0.9c-0.49,0.2-1.08,0.3-1.76,0.31c-0.65,0-1.2-0.08-1.66-0.27
			c-0.45-0.18-0.77-0.45-0.97-0.79c-0.2-0.34-0.3-0.7-0.3-1.11c0-0.39,0.1-0.99,0.3-1.76l0.77-3.03c0.23-0.9,0.54-1.62,0.9-2.15
			c0.38-0.52,0.87-0.93,1.49-1.21s1.28-0.42,2-0.44c0.86-0.01,1.53,0.15,2.03,0.49c0.48,0.32,0.76,0.76,0.84,1.32
			c0.08,0.55,0,1.34-0.25,2.34L78.32,34.27z M75.63,32.62l0.2-0.76c0.14-0.54,0.2-0.89,0.18-1.04C76,30.67,75.9,30.6,75.73,30.6
			c-0.23,0-0.37,0.07-0.45,0.2c-0.08,0.13-0.2,0.49-0.35,1.08l-0.2,0.76L75.63,32.62z"/>
		<path class="st3" d="M90.71,28.81l-3.89,10.38h-3.29c0-0.04-0.03-0.06-0.03-0.11c0.14-1.25,0.35-2.87,0.62-4.89
			c-0.35,0.93-0.72,1.84-1.1,2.77l-0.89,2.25l-3.34,0.03l1.32-10.34l2.66-0.03c-0.04,0.27-0.32,2.27-0.84,5.96
			c0.15-0.39,0.89-2.38,2.22-5.97l2.53-0.01l-0.87,5.96c0.55-1.76,1.3-3.75,2.22-5.98L90.71,28.81z"/>
		<path class="st3" d="M97.29,34.09l-4,0.04l-0.58,2.24c-0.11,0.46-0.17,0.77-0.14,0.92c0.04,0.14,0.14,0.2,0.32,0.2
			c0.24,0,0.41-0.08,0.54-0.27c0.13-0.18,0.25-0.52,0.38-1.04l0.35-1.37l2.96-0.03l-0.2,0.76c-0.17,0.63-0.32,1.14-0.49,1.48
			c-0.17,0.34-0.45,0.7-0.84,1.1c-0.39,0.39-0.83,0.69-1.34,0.9c-0.49,0.2-1.08,0.3-1.76,0.31c-0.66,0.01-1.2-0.08-1.66-0.27
			c-0.45-0.18-0.77-0.45-0.96-0.79c-0.2-0.34-0.3-0.7-0.3-1.1c0-0.41,0.1-0.99,0.28-1.76l0.77-3.03c0.23-0.9,0.54-1.62,0.92-2.14
			c0.37-0.54,0.87-0.93,1.49-1.23c0.62-0.28,1.28-0.42,2-0.44c0.86,0,1.53,0.15,2.03,0.49c0.48,0.32,0.76,0.77,0.84,1.32
			c0.08,0.55,0,1.34-0.25,2.34L97.29,34.09z M94.61,32.44l0.18-0.76c0.14-0.54,0.2-0.89,0.18-1.04c-0.01-0.15-0.11-0.24-0.28-0.24
			c-0.21,0-0.37,0.07-0.45,0.21c-0.08,0.14-0.2,0.49-0.35,1.08l-0.2,0.76L94.61,32.44z"/>
		<path class="st3" d="M106.74,28.65l-2.04,8c-0.27,1.08-0.48,1.77-0.62,2.1c-0.13,0.31-0.39,0.65-0.77,1.01
			c-0.38,0.35-0.87,0.62-1.45,0.82s-1.27,0.28-2.07,0.28c-0.99,0.01-1.75-0.15-2.25-0.48c-0.34-0.23-0.44-0.48-0.46-0.96v-1.08
			l3.06-0.01c-0.13,0.46-0.01,0.7,0.32,0.69c0.23,0,0.41-0.07,0.52-0.21c0.11-0.15,0.23-0.44,0.34-0.9l0.21-0.8
			c-0.34,0.25-0.66,0.44-0.99,0.56s-0.65,0.2-0.97,0.2c-0.56,0-0.99-0.1-1.3-0.32c-0.3-0.23-0.48-0.52-0.52-0.9
			c-0.04-0.37,0.03-0.9,0.2-1.59l0.96-3.76c0.25-0.99,0.61-1.69,1.07-2.13c0.46-0.44,1.04-0.65,1.75-0.66c0.39,0,0.72,0.07,1,0.24
			c0.28,0.15,0.51,0.39,0.68,0.72l0.42-0.79L106.74,28.65z M102.93,31.43c0.11-0.48,0.17-0.77,0.14-0.92
			c-0.01-0.13-0.11-0.2-0.3-0.2c-0.18,0-0.32,0.08-0.44,0.23c-0.11,0.14-0.23,0.45-0.34,0.87l-0.89,3.49
			c-0.11,0.46-0.17,0.77-0.14,0.9c0.01,0.14,0.13,0.21,0.3,0.21c0.2,0,0.37-0.08,0.46-0.25c0.1-0.17,0.24-0.55,0.38-1.14
			L102.93,31.43z"/>
		<path class="st3" d="M114.92,28.58l-2.04,8c-0.28,1.08-0.48,1.77-0.62,2.1c-0.13,0.31-0.38,0.65-0.77,1
			c-0.38,0.35-0.87,0.62-1.45,0.82c-0.58,0.18-1.27,0.3-2.07,0.3c-0.99,0.01-1.75-0.15-2.25-0.49c-0.52-0.34-0.65-1.01-0.42-2.01
			l3.01-0.03c-0.11,0.46-0.01,0.7,0.32,0.7c0.23,0,0.41-0.07,0.52-0.23c0.11-0.14,0.23-0.44,0.34-0.9l0.2-0.8
			c-0.32,0.25-0.65,0.44-0.99,0.56c-0.32,0.13-0.65,0.2-0.97,0.2c-0.56,0-1-0.1-1.3-0.32c-0.3-0.23-0.48-0.52-0.52-0.89
			c-0.04-0.37,0.03-0.89,0.21-1.58l0.96-3.76c0.25-0.99,0.61-1.69,1.07-2.13c0.46-0.44,1.04-0.66,1.76-0.66c0.38,0,0.72,0.07,1,0.24
			c0.27,0.15,0.51,0.39,0.68,0.72l0.42-0.79L114.92,28.58z M111.1,31.36c0.11-0.48,0.17-0.77,0.14-0.92
			c-0.03-0.13-0.13-0.2-0.31-0.18c-0.18,0-0.32,0.07-0.44,0.23c-0.11,0.15-0.23,0.44-0.34,0.87l-0.89,3.49
			c-0.11,0.46-0.15,0.77-0.14,0.9c0.03,0.14,0.13,0.21,0.3,0.21c0.2-0.01,0.35-0.08,0.45-0.25c0.11-0.17,0.24-0.55,0.39-1.14
			L111.1,31.36z"/>
		<path class="st3" d="M116.66,29.65h0.2c0.1,0,0.17-0.01,0.21-0.04c0.04-0.03,0.06-0.07,0.06-0.13c0-0.06-0.01-0.1-0.06-0.13
			c-0.04-0.03-0.1-0.04-0.18-0.04h-0.23L116.66,29.65L116.66,29.65z M116.42,30.33v-1.2h0.56c0.14,0,0.24,0.03,0.31,0.1
			c0.07,0.07,0.1,0.14,0.1,0.24s-0.03,0.17-0.08,0.23c-0.06,0.06-0.14,0.1-0.24,0.11c0.04,0.01,0.08,0.04,0.11,0.07
			c0.03,0.03,0.07,0.1,0.14,0.21l0.14,0.24h-0.3l-0.1-0.2c-0.06-0.11-0.11-0.2-0.15-0.24c-0.04-0.04-0.1-0.06-0.18-0.06h-0.07v0.49
			L116.42,30.33L116.42,30.33z M116.95,28.82c-0.28,0-0.51,0.08-0.68,0.27c-0.17,0.18-0.25,0.39-0.25,0.63
			c0,0.25,0.08,0.46,0.27,0.65c0.18,0.18,0.39,0.27,0.65,0.27c0.25,0,0.46-0.08,0.63-0.27c0.18-0.18,0.27-0.39,0.27-0.65
			c0-0.17-0.04-0.32-0.14-0.48c-0.08-0.14-0.21-0.25-0.35-0.32C117.21,28.85,117.09,28.82,116.95,28.82 M116.9,28.6
			c0.34,0,0.62,0.11,0.83,0.34c0.21,0.23,0.32,0.49,0.32,0.79c0,0.31-0.11,0.58-0.34,0.8c-0.23,0.23-0.49,0.34-0.8,0.34
			s-0.58-0.11-0.8-0.34c-0.23-0.23-0.32-0.49-0.32-0.8c0-0.23,0.06-0.42,0.17-0.61c0.11-0.18,0.27-0.32,0.44-0.39
			C116.58,28.64,116.75,28.6,116.9,28.6"/>
	</g>
</g>
</svg>
