<?xml version="1.0" encoding="utf-8"?>
<!-- Generator: Adobe Illustrator 27.0.0, SVG Export Plug-In . SVG Version: 6.00 Build 0)  -->
<svg version="1.1" id="Capa_1" xmlns="http://www.w3.org/2000/svg" xmlns:xlink="http://www.w3.org/1999/xlink" x="0px" y="0px"
	 viewBox="0 0 175.47 158.42" style="enable-background:new 0 0 175.47 158.42;" xml:space="preserve">
<style type="text/css">
	.st0{fill:#EC6E73;}
	.st1{fill:#46EAB3;}
	.st2{fill:none;stroke:#46EAB3;stroke-miterlimit:10;}
</style>
<g>
	<g>
		<path class="st0" d="M18.01,84.48c0-3.62,0-7.24,0-10.85c0.44-0.21,0.25-0.63,0.28-0.96c0.27-2.65,0.62-5.29,1.19-7.9
			c3.69-16.8,12.2-30.68,25.99-40.95c19.24-14.34,40.67-18.1,63.47-10.71c22.24,7.21,36.99,22.51,44.61,44.6
			c1.5,4.35,2.53,8.85,2.82,13.47c-0.7-0.09-1.06-0.66-1.5-1.1c-8.86-8.85-17.72-17.71-26.58-26.56c-0.44-0.44-0.8-1.01-1.5-1.1
			c-1.34-2.39-3.45-3.28-6.11-3.2c-1.94,0.06-3.88,0.01-5.82,0.01c-5.92,0-11.83-0.03-17.75,0.01c-3.93,0.03-6.09,2.26-6.12,6.18
			c-0.01,1.26-0.03,2.53-0.05,3.79c-0.59-0.09-0.91-0.55-1.29-0.93c-1.6-1.58-3.18-3.18-4.77-4.77c-0.38-0.38-0.74-0.81-1.34-0.83
			c-1.24-2.52-3.32-3.48-6.06-3.47c-7.81,0.04-15.62,0.01-23.43,0.02c-4.26,0-6.42,2.16-6.42,6.42c-0.01,7.81,0.03,15.62-0.02,23.43
			c-0.02,2.74,0.95,4.82,3.47,6.06c0.02,0.6,0.45,0.96,0.83,1.34c1.33,1.34,2.69,2.65,4,4.01c0.61,0.64,1.44,1.11,1.7,2.04
			c-1.04,0.02-2.08,0.05-3.12,0.05c-4.85,0.01-6.87,2.01-6.87,6.82c0,7.51,0.05,15.01-0.02,22.52c-0.03,2.92,0.81,5.23,3.52,6.62
			c0,0.79,0.63,1.17,1.1,1.63c8.75,8.76,17.51,17.52,26.26,26.28c0.44,0.44,1.01,0.8,1.1,1.49c-2.4-0.05-4.74-0.57-7.07-1.09
			c-28.28-6.28-49.64-29.26-53.79-57.82C18.52,87.53,18.6,85.95,18.01,84.48z"/>
		<path class="st1" d="M126.81,42.42c0.38,1.26,0.5,2.55,0.49,3.88c-0.02,7.5-0.01,14.99-0.01,22.49c0,4.66-2.05,6.72-6.67,6.72
			c-7.72,0-15.45,0-23.17,0c-4.29,0-6.44-2.14-6.45-6.39c-0.02-6.64-0.03-13.28-0.05-19.91c0.02-1.26,0.04-2.53,0.05-3.79
			c0.03-3.92,2.19-6.15,6.12-6.18c5.91-0.04,11.83-0.01,17.75-0.01c1.94,0,3.88,0.04,5.82-0.01
			C123.36,39.14,125.47,40.02,126.81,42.42z M109.31,55.19c-2.48,0-4.97,0-7.45,0c-3.03,0-2.99,0-3.01,3.09
			c-0.01,1.04,0.34,1.28,1.32,1.27c5.37-0.04,10.75-0.02,16.12-0.02c3.24,0,3.21,0,3.15-3.23c-0.02-0.9-0.33-1.15-1.19-1.14
			C115.28,55.21,112.29,55.19,109.31,55.19z"/>
		<path class="st2" d="M83.56,42.69c0.32,1.1,0.38,2.22,0.38,3.35c-0.01,7.68,0,15.37-0.01,23.05c0,4.27-2.14,6.42-6.42,6.42
			c-7.68,0-15.37-0.01-23.05,0.01c-1.14,0-2.26-0.06-3.35-0.38c-2.52-1.24-3.48-3.32-3.47-6.06c0.04-7.81,0.01-15.62,0.02-23.43
			c0-4.26,2.16-6.42,6.42-6.42c7.81-0.01,15.62,0.03,23.43-0.02C80.25,39.2,82.33,40.16,83.56,42.69z M63.61,63.25
			c0,0.53,0,0.85,0,1.16c0,3.36,0,3.33,3.35,3.25c0.75-0.02,1.03-0.21,1.01-0.99c-0.05-1.99,0.04-3.98-0.04-5.97
			c-0.04-0.99,0.32-1.24,1.24-1.19c1.26,0.07,2.53,0.02,3.8,0.02c3.16,0,3.13,0,3.11-3.22c0-0.88-0.24-1.18-1.14-1.15
			c-1.9,0.06-3.8-0.03-5.69,0.04c-0.97,0.04-1.4-0.17-1.31-1.25c0.1-1.21,0.02-2.44,0.02-3.66c0-3.39,0-3.36-3.4-3.22
			c-0.81,0.03-0.98,0.34-0.96,1.06c0.04,1.85-0.05,3.71,0.04,5.56c0.05,1.12-0.16,1.61-1.44,1.53c-1.89-0.13-3.8,0.02-5.69-0.05
			c-1.37-0.05-1.1,0.97-0.93,1.56c0.27,0.94-1.08,2.51,0.91,2.78c1.07,0.14,2.17-0.01,3.25,0.04c1.25,0.05,2.88-0.55,3.65,0.25
			C64.14,60.59,63.52,62.21,63.61,63.25z"/>
		<path class="st1" d="M57.63,82.53c6.6,0.02,13.2,0.04,19.8,0.05c4.37,0.01,6.5,2.13,6.51,6.48c0,7.82,0.01,15.64,0,23.46
			c0,4.17-2.18,6.35-6.37,6.35c-7.82,0.01-15.64,0.01-23.46-0.01c-0.99,0-1.97-0.2-2.96-0.31c-2.71-1.39-3.55-3.71-3.52-6.62
			c0.07-7.51,0.02-15.01,0.02-22.52c0-4.82,2.02-6.82,6.87-6.82C55.55,82.58,56.59,82.55,57.63,82.53z M65.64,97.74
			c2.48,0,4.96,0,7.44,0c3.02,0,2.96,0,3.01-2.97c0.02-1.19-0.43-1.41-1.49-1.4c-5.37,0.04-10.73,0.02-16.1,0.02
			c-3.03,0-2.99,0-3.01,2.97c-0.01,1.04,0.26,1.43,1.36,1.4C59.78,97.69,62.71,97.74,65.64,97.74z M65.62,108.08
			c2.48,0,4.97,0,7.45,0c3.05,0,3.01,0,3.02-3.09c0-1.04-0.34-1.29-1.33-1.28c-5.37,0.04-10.74,0.02-16.12,0.02
			c-3.26,0-3.23,0-3.16,3.22c0.02,0.9,0.33,1.15,1.2,1.14C59.66,108.06,62.64,108.08,65.62,108.08z"/>
		<path class="st2" d="M109.31,55.19c2.98,0,5.96,0.03,8.94-0.02c0.87-0.01,1.18,0.23,1.19,1.14c0.06,3.23,0.1,3.23-3.15,3.23
			c-5.37,0-10.75-0.02-16.12,0.02c-0.98,0.01-1.33-0.23-1.32-1.27c0.02-3.09-0.03-3.09,3.01-3.09
			C104.35,55.19,106.83,55.19,109.31,55.19z"/>
		<path class="st2" d="M63.61,63.25c-0.09-1.04,0.53-2.66-0.23-3.45c-0.77-0.8-2.4-0.2-3.65-0.25c-1.08-0.05-2.18,0.11-3.25-0.04
			c-2-0.27-0.64-1.84-0.91-2.78c-0.17-0.59-0.44-1.61,0.93-1.56c1.9,0.07,3.8-0.08,5.69,0.05c1.28,0.09,1.5-0.4,1.44-1.53
			c-0.09-1.85,0-3.71-0.04-5.56c-0.01-0.72,0.16-1.03,0.96-1.06c3.4-0.14,3.4-0.16,3.4,3.22c0,1.22,0.08,2.45-0.02,3.66
			c-0.09,1.08,0.34,1.28,1.31,1.25c1.9-0.07,3.8,0.02,5.69-0.04c0.9-0.03,1.14,0.27,1.14,1.15c0.02,3.22,0.05,3.22-3.11,3.22
			c-1.27,0-2.53,0.05-3.8-0.02c-0.92-0.05-1.27,0.2-1.24,1.19c0.07,1.99-0.01,3.98,0.04,5.97c0.02,0.78-0.26,0.97-1.01,0.99
			c-3.35,0.08-3.35,0.11-3.35-3.25C63.61,64.09,63.61,63.78,63.61,63.25z"/>
		<path class="st2" d="M65.64,97.74c-2.93,0-5.86-0.05-8.79,0.02c-1.1,0.03-1.37-0.36-1.36-1.4c0.02-2.97-0.02-2.97,3.01-2.97
			c5.37,0,10.73,0.02,16.1-0.02c1.07-0.01,1.51,0.21,1.49,1.4c-0.05,2.97,0.01,2.97-3.01,2.97C70.6,97.74,68.12,97.74,65.64,97.74z"
			/>
		<path class="st2" d="M65.62,108.08c-2.98,0-5.96-0.03-8.94,0.02c-0.87,0.01-1.18-0.24-1.2-1.14c-0.07-3.23-0.1-3.22,3.16-3.22
			c5.37,0,10.74,0.02,16.12-0.02c0.98-0.01,1.33,0.24,1.33,1.28c-0.01,3.09,0.03,3.09-3.02,3.09
			C70.59,108.08,68.1,108.08,65.62,108.08z"/>
	</g>
	<g>
		<path class="st2" d="M117.28,95.68c0.22-0.22,0.5-0.39,0.55-0.78c-0.14-0.15-0.29-0.32-0.45-0.48c-0.57-0.58-1.19-1.12-1.71-1.74
			c-0.55-0.65-0.95-0.73-1.59-0.04c-1.38,1.49-2.88,2.87-4.28,4.34c-0.48,0.5-0.79,0.56-1.28,0.01c-0.88-0.97-1.84-1.86-2.77-2.79
			c-2.34-2.34-2.32-2.32-4.64-0.01c-0.6,0.6-0.72,0.95-0.03,1.59c1.49,1.38,2.87,2.88,4.34,4.28c0.51,0.48,0.56,0.79,0.02,1.28
			c-0.97,0.88-1.86,1.84-2.79,2.77c-2.34,2.34-2.31,2.31-0.01,4.64c0.6,0.61,0.95,0.71,1.58,0.03c1.38-1.49,2.88-2.87,4.28-4.34
			c0.49-0.51,0.8-0.54,1.29-0.01c0.89,0.96,1.84,1.86,2.77,2.79c2.33,2.33,2.31,2.31,4.63,0.01c0.6-0.59,0.73-0.94,0.04-1.58
			c-1.46-1.35-2.8-2.82-4.24-4.19c-0.6-0.56-0.65-0.9-0.02-1.49C114.44,98.6,115.85,97.13,117.28,95.68z"/>
		<path class="st2" d="M156.6,72.1c-0.03-0.31-0.15-0.61-0.22-0.92c-0.7-0.09-1.06-0.66-1.5-1.1c-8.86-8.85-17.72-17.71-26.58-26.56
			c-0.44-0.44-0.8-1.01-1.5-1.1c0.38,1.26,0.5,2.55,0.49,3.88c-0.02,7.5-0.01,14.99-0.01,22.49c0,4.66-2.05,6.72-6.67,6.72
			c-7.72,0-15.45,0-23.17,0c-4.29,0-6.44-2.14-6.45-6.39c-0.02-6.64-0.03-13.28-0.05-19.91c-0.59-0.09-0.91-0.55-1.29-0.93
			c-1.6-1.58-3.18-3.18-4.77-4.77c-0.38-0.38-0.74-0.81-1.34-0.83c0.32,1.1,0.38,2.22,0.38,3.35c-0.01,7.68,0,15.37-0.01,23.05
			c0,4.27-2.14,6.42-6.42,6.42c-7.68,0-15.37-0.01-23.05,0.01c-1.14,0-2.26-0.06-3.35-0.38c0.02,0.6,0.45,0.96,0.83,1.34
			c1.33,1.34,2.69,2.65,4,4.01c0.61,0.64,1.44,1.11,1.7,2.04c6.6,0.02,13.2,0.04,19.8,0.05c4.37,0.01,6.5,2.13,6.51,6.48
			c0,7.82,0.01,15.64,0,23.46c0,4.17-2.18,6.35-6.37,6.35c-7.82,0.01-15.64,0.01-23.46-0.01c-0.99,0-1.97-0.2-2.96-0.31
			c0,0.79,0.63,1.17,1.1,1.63c8.75,8.76,17.51,17.52,26.26,26.28c0.44,0.44,1.01,0.8,1.1,1.49c0.84,0.49,1.89-0.03,2.71,0.55
			c3.53,0,7.05,0,10.58,0c1.47-0.57,3.06-0.46,4.58-0.73c28.06-5,46.83-20.99,56.21-47.86C156.82,90.93,157.47,81.57,156.6,72.1z
			 M127.26,112.8c-0.02,3.78-2.22,6.01-5.99,6.03c-8.09,0.04-16.19,0.04-24.28,0c-3.76-0.02-5.95-2.28-5.96-6.05
			c-0.02-4.03,0-8.05,0-12.07c0-3.98-0.01-7.96,0-11.94c0.01-3.94,2.21-6.16,6.12-6.17c8-0.01,16.01-0.01,24.01,0
			c3.84,0.01,6.08,2.2,6.1,6.05C127.29,96.71,127.29,104.76,127.26,112.8z"/>
	</g>
</g>
</svg>
